<?xml version="1.0" encoding="UTF-8" standalone="no"?>
<svg
   xmlns:dc="http://purl.org/dc/elements/1.1/"
   xmlns:cc="http://creativecommons.org/ns#"
   xmlns:rdf="http://www.w3.org/1999/02/22-rdf-syntax-ns#"
   xmlns:svg="http://www.w3.org/2000/svg"
   xmlns="http://www.w3.org/2000/svg"
   xmlns:sodipodi="http://sodipodi.sourceforge.net/DTD/sodipodi-0.dtd"
   xmlns:inkscape="http://www.inkscape.org/namespaces/inkscape"
   width="161px"
   height="44px"
   viewBox="0 0 161 44"
   version="1.1"
   id="svg50"
   sodipodi:docname="carfax-canada-logo-white.svg"
   inkscape:version="0.92.3 (2405546, 2018-03-11)">
  <metadata
     id="metadata56">
    <rdf:RDF>
      <cc:Work
         rdf:about="">
        <dc:format>image/svg+xml</dc:format>
        <dc:type
           rdf:resource="http://purl.org/dc/dcmitype/StillImage" />
        <dc:title>B4922834-14E0-47BC-AC78-88802A02F2D5@1x</dc:title>
      </cc:Work>
    </rdf:RDF>
  </metadata>
  <defs
     id="defs54" />
  <sodipodi:namedview
     pagecolor="#ffffff"
     bordercolor="#666666"
     borderopacity="1"
     objecttolerance="10"
     gridtolerance="10"
     guidetolerance="10"
     inkscape:pageopacity="0"
     inkscape:pageshadow="2"
     inkscape:window-width="1920"
     inkscape:window-height="1017"
     id="namedview52"
     showgrid="false"
     inkscape:zoom="7.0559006"
     inkscape:cx="116.6668"
     inkscape:cy="37.172107"
     inkscape:window-x="-8"
     inkscape:window-y="-8"
     inkscape:window-maximized="1"
     inkscape:current-layer="svg50" />
  <!-- Generator: sketchtool 55 (78076) - https://sketchapp.com -->
  <title
     id="title2">B4922834-14E0-47BC-AC78-88802A02F2D5@1x</title>
  <desc
     id="desc4">Created with sketchtool.</desc>
  <g
     id="Page-1"
     stroke="none"
     stroke-width="1"
     fill="none"
     fill-rule="evenodd">
    <g
       id="True-Trade-Banners-Spec"
       transform="translate(-1051.000000, -2236.000000)">
      <g
         id="CarfaxCanada-3colour_EN-Copy-11"
         transform="translate(1051.000000, 2236.500000)">
        <g
           id="Group"
           transform="translate(91.407089, 33.935722)"
           fill="#000000"
           fill-rule="nonzero">
          <path
             d="M6.51584318,0.591540109 C7.10257787,0.840609629 7.62755102,1.18308022 8.05988185,1.61895188 L6.82465091,3.08223531 C6.54672395,2.73976472 6.23791622,2.4906952 5.83646617,2.27275937 C5.46589689,2.08595723 5.0953276,1.96142247 4.69387755,1.96142247 C4.26154672,1.96142247 3.86009667,2.05482354 3.52040816,2.27275937 C3.18071966,2.4906952 2.9027927,2.77089841 2.68662728,3.14450269 C2.47046187,3.51810697 2.37781955,3.92284494 2.37781955,4.38985029 C2.37781955,4.85685563 2.47046187,5.2615936 2.68662728,5.66633157 C2.9027927,6.03993585 3.18071966,6.35127275 3.52040816,6.56920858 C3.89097744,6.78714441 4.26154672,6.88054548 4.69387755,6.88054548 C5.03356606,6.88054548 5.40413534,6.78714441 5.77470462,6.63147596 C6.1452739,6.44467382 6.48496241,6.22673799 6.79377014,5.91540109 L8.02900107,7.22301607 C7.56578947,7.69002142 7.04081633,8.0636257 6.42320086,8.34382891 C5.80558539,8.62403212 5.18796992,8.74856688 4.57035446,8.74856688 C3.73657358,8.74856688 2.99543502,8.56176474 2.316058,8.18816046 C1.63668099,7.81455618 1.11170784,7.28528345 0.741138561,6.63147596 C0.37056928,5.97766847 0.154403867,5.23045991 0.154403867,4.42098398 C0.154403867,3.61150804 0.339688507,2.89543317 0.741138561,2.24162568 C1.14258861,1.58781819 1.66756176,1.08967915 2.34693878,0.716074869 C3.02631579,0.34247059 3.79833512,0.15566845 4.632116,0.15566845 C5.31149302,0.21793583 5.92910849,0.34247059 6.51584318,0.591540109 Z"
             id="Shape"
             style="fill:#ffffff" />
          <path
             d="M11.3332438,7.16074869 L10.7156284,8.71743319 L8.52309345,8.71743319 L12.1361439,0.28020321 L14.3286788,0.28020321 L17.849087,8.71743319 L15.5947905,8.71743319 L15.0080559,7.16074869 L11.3332438,7.16074869 Z M13.1552095,2.42842782 L11.9508593,5.54179681 L14.3595596,5.54179681 L13.1552095,2.42842782 Z"
             id="path7"
             style="fill:#ffffff" />
          <polygon
             id="polygon9"
             points="24.8899033 8.71743319 21.0298067 3.51810697 21.0298067 8.71743319 19.0225564 8.71743319 19.0225564 0.28020321 20.9062836 0.28020321 24.7663802 5.47952943 24.7663802 0.28020321 26.7427497 0.28020321 26.7427497 8.71743319"
             style="fill:#ffffff" />
          <path
             d="M30.8190118,7.16074869 L30.2013963,8.71743319 L28.0088614,8.71743319 L31.6219119,0.28020321 L33.8144468,0.28020321 L37.334855,8.71743319 L35.0805585,8.71743319 L34.4938238,7.16074869 L30.8190118,7.16074869 Z M32.6409774,2.42842782 L31.4366273,5.54179681 L33.8453276,5.54179681 L32.6409774,2.42842782 Z"
             id="path11"
             style="fill:#ffffff" />
          <path
             d="M44.6844791,0.809475939 C45.3638561,1.15194653 45.8888292,1.65008557 46.2593985,2.30389306 C46.6299678,2.92656686 46.8152524,3.67377542 46.8152524,4.48325136 C46.8152524,5.29272729 46.6299678,6.03993585 46.2285177,6.66260965 C45.8579484,7.31641714 45.3020945,7.78342249 44.6227175,8.15702677 C43.9433405,8.49949736 43.1404404,8.6862995 42.2757787,8.6862995 L38.7553706,8.6862995 L38.7553706,0.24906952 L42.3375403,0.24906952 C43.2639635,0.28020321 44.0359828,0.46700535 44.6844791,0.809475939 Z M40.9170247,7.00508024 L42.4301826,7.00508024 C42.8625134,7.00508024 43.2330827,6.91167917 43.5727712,6.69374334 C43.9124597,6.47580751 44.1903867,6.1956043 44.3756713,5.82200002 C44.560956,5.44839574 44.6535983,5.01252408 44.6535983,4.51438505 C44.6535983,4.01624601 44.560956,3.58037435 44.3447905,3.20677007 C44.1595059,2.83316579 43.8815789,2.52182889 43.5110097,2.30389306 C43.1404404,2.08595723 42.7698711,1.99255616 42.3066595,1.99255616 L40.8861439,1.99255616 L40.8861439,7.00508024 L40.9170247,7.00508024 Z"
             id="path13"
             style="fill:#ffffff" />
          <path
             d="M49.9033298,7.16074869 L49.2857143,8.71743319 L47.0931794,8.71743319 L50.7062299,0.28020321 L52.8987648,0.28020321 L56.4191729,8.71743319 L54.1648765,8.71743319 L53.5781418,7.16074869 L49.9033298,7.16074869 Z M51.7561762,2.42842782 L50.551826,5.54179681 L52.9605263,5.54179681 L51.7561762,2.42842782 Z"
             id="path15"
             style="fill:#ffffff" />
        </g>
        <polygon
           id="polygon18"
           fill="#E74C3C"
           fill-rule="nonzero"
           points="153.32304 41.6568772 151.192266 41.9059467 151.34667 41.0653371 149.246778 39.4775189 149.679108 38.8859788 149.246778 37.5160964 150.605532 37.6717649 150.94522 36.9868237 152.273093 38.2321713 151.809882 35.4612729 152.674544 35.9905456 153.570086 34.2159253 154.465628 35.9905456 155.392052 35.4924066 154.92884 38.263305 156.225832 36.9868237 156.627282 37.7028986 157.986037 37.5160964 157.491944 38.8859788 157.986037 39.4775189 155.762621 41.0653371 156.040548 41.9370804 153.909774 41.6568772 153.909774 42.6531553 153.32304 42.6531553" />
        <g
           id="g45">
          <path
             d="M159.962406,28.51846 C159.962406,29.8572087 158.850698,30.9468878 157.522825,30.9468878 L3.08807734,30.9468878 C1.72932331,30.9468878 0.648496241,29.8572087 0.648496241,28.51846 L0.648496241,3.26903745 C0.648496241,1.93028878 1.76020408,0.840609629 3.08807734,0.840609629 L157.491944,0.840609629 C158.850698,0.840609629 159.931525,1.93028878 159.931525,3.26903745 L159.931525,28.51846 L159.962406,28.51846 Z"
             id="path20"
             fill="#FFFFFF" />
          <path
             d="M3.18071966,0.18680214 C1.45139635,0.18680214 0.0617615467,1.5566845 0.0617615467,3.26903745 L0.0617615467,28.5495937 C0.0617615467,30.2619466 1.45139635,31.631829 3.18071966,31.631829 L157.584586,31.631829 C159.31391,31.631829 160.703545,30.2619466 160.703545,28.5495937 L160.703545,3.26903745 C160.703545,1.5566845 159.31391,0.18680214 157.584586,0.18680214 L3.18071966,0.18680214 Z M1.3896348,28.5495937 L1.3896348,3.26903745 C1.3896348,2.30389306 2.19253491,1.52555081 3.18071966,1.52555081 L157.584586,1.52555081 C158.572771,1.52555081 159.375671,2.30389306 159.375671,3.26903745 L159.375671,28.5495937 C159.375671,29.5147381 158.572771,30.2930803 157.584586,30.2930803 L3.18071966,30.2930803 C2.19253491,30.2930803 1.3896348,29.4836044 1.3896348,28.5495937 Z"
             id="path22"
             fill="#000000"
             fill-rule="nonzero" />
          <polygon
             id="Rectangle-path"
             fill="#000000"
             fill-rule="nonzero"
             points="28.7808808 2.77089841 53.7016649 2.77089841 53.7016649 29.016599 28.7808808 29.016599" />
          <rect
             id="rect25"
             fill="#000000"
             fill-rule="nonzero"
             x="54.8751343"
             y="2.77089841"
             width="24.9207841"
             height="26.2457006" />
          <polygon
             id="polygon27"
             fill="#000000"
             fill-rule="nonzero"
             points="80.938507 2.77089841 105.859291 2.77089841 105.859291 29.016599 80.938507 29.016599" />
          <polygon
             id="polygon29"
             fill="#000000"
             fill-rule="nonzero"
             points="107.00188 2.77089841 131.922664 2.77089841 131.922664 29.016599 107.00188 29.016599" />
          <polygon
             id="polygon31"
             fill="#000000"
             fill-rule="nonzero"
             points="2.71750806 2.77089841 27.6382922 2.77089841 27.6382922 29.016599 2.71750806 29.016599" />
          <path
             d="M15.7491944,25.1248878 C10.5921053,25.1248878 7.84371643,21.2643102 7.84371643,16.064984 C7.84371643,10.4297861 11.1170784,7.00508024 15.7800752,7.00508024 C20.0416219,7.00508024 21.7400644,8.84196795 22.9444146,12.1732728 L18.528464,13.9167594 C17.9108485,12.2978075 17.3241139,11.2392621 15.7183136,11.2392621 C13.7110634,11.2392621 12.8464017,13.2629519 12.8464017,16.064984 C12.8464017,18.7424814 13.6801826,20.890706 15.7800752,20.890706 C17.2932331,20.890706 17.9417293,20.0500963 18.8990333,18.4000108 L22.9752954,20.5793691 C21.801826,22.8832621 19.8563373,25.1248878 15.7491944,25.1248878 Z"
             id="path33"
             fill="#FFFFFF"
             fill-rule="nonzero" />
          <path
             d="M42.646348,17.777337 L39.7744361,17.777337 L40.0832438,16.6253904 C40.7008593,14.3837648 40.9787863,13.4186204 41.1949517,12.2355402 C41.4111171,13.4186204 41.689044,14.3526311 42.3066595,16.6253904 L42.646348,17.777337 Z M49.9959721,24.7512835 L43.6962943,7.22301607 L38.8171321,7.22301607 L32.5174544,24.7512835 L37.6745435,24.7512835 L38.6318475,21.6379145 L43.8506982,21.6379145 L44.8080021,24.7512835 L49.9959721,24.7512835 Z"
             id="path35"
             fill="#FFFFFF"
             fill-rule="nonzero" />
          <path
             d="M69.9449517,13.0450161 C69.9449517,14.2903637 69.3273362,15.0064386 67.7524168,15.0064386 L64.9113856,15.0064386 L64.9113856,11.145861 L67.8141783,11.145861 C69.3273362,11.145861 69.9449517,11.9242033 69.9449517,13.0450161 Z M75.07116,24.7201498 L71.5816327,18.0264065 C73.4962406,17.1546632 74.7005908,15.5357113 74.7005908,12.8893476 C74.7005908,8.71743319 71.9830827,7.19188238 67.9068206,7.19188238 L60.1248657,7.19188238 L60.1248657,24.7201498 L64.8805048,24.7201498 L64.8805048,18.8047487 L66.8259936,18.8047487 L69.6670247,24.7201498 L75.07116,24.7201498 Z"
             id="path37"
             fill="#FFFFFF"
             fill-rule="nonzero" />
          <polygon
             id="polygon39"
             fill="#FFFFFF"
             fill-rule="nonzero"
             points="91.3762084 11.3326631 91.3762084 13.7922247 96.8112245 13.7922247 96.8112245 17.9018717 91.3762084 17.9018717 91.3762084 24.7512835 86.5896885 24.7512835 86.5896885 7.19188238 100.362513 7.19188238 100.362513 11.3326631" />
          <path
             d="M120.898228,17.777337 L118.026316,17.777337 L118.335124,16.6253904 C118.952739,14.3837648 119.230666,13.4186204 119.446831,12.2355402 C119.662997,13.4186204 119.940924,14.3526311 120.558539,16.6253904 L120.898228,17.777337 Z M128.247852,24.7201498 L121.948174,7.19188238 L117.038131,7.19188238 L110.738453,24.7201498 L115.895542,24.7201498 L116.852846,21.6067808 L122.071697,21.6067808 L123.029001,24.7201498 L128.247852,24.7201498 Z"
             id="path41"
             fill="#FFFFFF"
             fill-rule="nonzero" />
          <path
             d="M133.065252,2.77089841 L133.065252,29.016599 L157.986037,29.016599 L157.986037,2.77089841 L133.065252,2.77089841 Z M143.132385,28.3316579 L143.564715,27.7089841 C144.274973,26.6193049 145.077873,25.405091 145.510204,24.502214 C145.973416,25.4362247 146.52927,26.6193049 147.208647,27.7089841 L147.610097,28.3316579 C146.12782,28.3316579 144.614662,28.3316579 143.132385,28.3316579 Z M157.30666,28.3316579 C157.30666,28.3316579 155.73174,28.3316579 153.631847,28.3316579 L148.382116,20.8284386 L154.403867,12.2978075 L148.412997,12.2978075 L147.36305,13.9790268 C146.683673,15.0687059 145.942535,16.2517862 145.510204,17.1546632 C145.108754,16.2206525 144.367615,15.0687059 143.688238,13.9790268 L142.638292,12.2978075 L136.523899,12.2978075 L142.54565,20.9218397 L137.234157,28.3316579 C135.288668,28.3316579 133.744629,28.3316579 133.744629,28.3316579 L133.744629,3.45583959 L157.30666,3.45583959 L157.30666,28.3316579 Z"
             id="path43"
             fill="#000000"
             fill-rule="nonzero" />
        </g>
      </g>
    </g>
  </g>
</svg>
